# xmcd CD database file generated by OrangeCD 5.2
#
# Track frame offsets:
#	150
#	12018
#	18806
#	31078
#	43581
#	52847
#	72080
#	85847
#	104225
#	124547
#	141617
#	154937
#	167581
#	178859
#	179562
#	189796
#	201270
#	215356
#	228919
#	246502
#	272089
#	286296
#	301509
#	319033
#	331718
#
# Disc length: 4484 seconds
#
# Revision: 0
# Processed by: cddbd v1.5.1PL2 Copyright (c) Steve Scherf et al.
# Submitted via: OrangeCD 5.2
#
DISCID=54118219
DTITLE=Johnny Cah - Live At Jones Country Park Texas
DYEAR=1900
DGENRE=Country
TTITLE0=Johnny Cash and George Jones - I Got Stripes
TTITLE1=Show Opening
TTITLE2=Ring Of Fire
TTITLE3=Folsom Prison Blues
TTITLE4=No Fault Of Mine
TTITLE5=Sunday Morning Coming Down
TTITLE6=Why Me Lord
TTITLE7=One Piece At A Time
TTITLE8=Highway Patrolman
TTITLE9=(Ghost) Riders In The Sky
TTITLE10=The Alamo
TTITLE11=I Walk The Line
TTITLE12=Give My Love To Rose
TTITLE13=Introduction Of June Carter
TTITLE14=Johnny Cash and June Carter - If I Were A Carpenter
TTITLE15=Johnny Cash and June Carter - Jackson
TTITLE16=June Carter - Wabash Cannonball
TTITLE17=June Carter - San Antonio Rose
TTITLE18=June Carter - Fifty Miles Of Elbow Room
TTITLE19=Johnny Cash and June Carter - Will The Circle Be Unbroken
TTITLE20=Johnny Cash and June Carter - Wreck Of The Old '97
TTITLE21=Orange Blossom Special
TTITLE22=A Boy Named Sue
TTITLE23=Supper Time
TTITLE24=Outro
EXTD=Recorded Live At Jones Country Park Texas April 01, 1984
EXTT0=
EXTT1=
EXTT2=
EXTT3=
EXTT4=
EXTT5=
EXTT6=
EXTT7=
EXTT8=
EXTT9=
EXTT10=
EXTT11=
EXTT12=
EXTT13=
EXTT14=
EXTT15=
EXTT16=
EXTT17=
EXTT18=
EXTT19=
EXTT20=
EXTT21=
EXTT22=
EXTT23=
EXTT24=
PLAYORDER=
